<svg width="240" height="240" viewBox="0 0 240 240" fill="none" xmlns="http://www.w3.org/2000/svg">
  <rect width="240" height="240" rx="20" fill="#F5F5F5"/>
  <path d="M60 60H180V180H60V60Z" fill="#E0E0E0"/>
  <path d="M80 80H160V160H80V80Z" fill="#F5F5F5"/>
  <path d="M100 100H140V140H100V100Z" fill="#333333"/>
  <path d="M60 60L100 100L140 140L180 180" stroke="#333333" stroke-width="4"/>
  <path d="M60 180L100 140L140 100L180 60" stroke="#333333" stroke-width="4"/>
  <path d="M75 190V50H85V190H75Z" fill="#333333"/>
  <path d="M155 190V50H165V190H155Z" fill="#333333"/>
  <path d="M190 75H50V85H190V75Z" fill="#333333"/>
  <path d="M190 155H50V165H190V155Z" fill="#333333"/>
  <path d="M50 200H190" stroke="#333333" stroke-width="6" stroke-linecap="round"/>
  <text x="120" y="220" font-family="Arial, sans-serif" font-size="12" font-weight="bold" text-anchor="middle" fill="#333333">PowerBuilder</text>
</svg>
